<svg xmlns="http://www.w3.org/2000/svg" id="Layer_1" data-name="Layer 1" viewBox="0 0 1260 722"><defs><style>      .cls-1 {        fill: #fff;        stroke-width: 0px;      }    </style></defs><g><path class="cls-1" d="m231.8,421.73v-.03s-9.67-7.16-9.67-7.16l.02-.03h-.02s.02,0,.02,0l.91-1.23h-1.02v-.04h1.05l6.22-8.4,1.05,6.99-1.03-7,1.24,8.41-1.21-8.41,9.64,7.2h.02s-.02,0-.02,0l.03.02-.89,1.19h.97v33.58l-7.27-25.1v-.03s-.03.03-.03.03l-.03-.02v.03Zm-1.22-8.45"></path><path class="cls-1" d="m194.63,630.11c-14.38,0-28.34-2.82-41.48-8.38-12.69-5.37-24.09-13.05-33.87-22.83-9.78-9.78-17.47-21.18-22.83-33.87-5.56-13.14-8.38-27.1-8.38-41.48v-6.61h.01s-.07-23.94-.07-23.94v-.22s.02-.09.02-.13c.13-9.87,3.93-19.26,10.72-26.47,6.89-7.31,16.21-11.68,26.24-12.3,21.88-1.35,40.77,15.14,42.11,36.76.02.33.02.4.22,28.91v.06c0,7.38,2.83,14.28,7.96,19.44,5.13,5.15,12,7.99,19.36,7.99,14.97,0,27.18-12.06,27.42-26.97v-.47s0-97.12,0-97.12h8.95c2.52.13,5.05.12,7.52-.04,9.41-.58,18.4-3.04,26.7-7.31,8.03-4.13,15.06-9.74,20.9-16.69l15.08-17.95v143.07c0,16.96-3.87,33.18-11.51,48.2-7.28,14.32-17.91,27.03-30.74,36.76-18.64,14.13-40.88,21.6-64.32,21.6Zm-89.45-103.89c.67,22.9,9.9,44.33,26.17,60.6,16.9,16.9,39.38,26.21,63.28,26.21,19.68,0,38.36-6.27,54-18.13,10.79-8.18,19.72-18.86,25.83-30.89,6.41-12.61,9.65-26.22,9.65-40.47v-100.07c-3.5,2.54-7.2,4.82-11.09,6.82-10.42,5.36-21.68,8.44-33.46,9.17-.15,0-.3.02-.45.03v80.11c0,24.54-19.96,44.5-44.49,44.5-11.93,0-23.1-4.62-31.46-13.01-8.33-8.37-12.93-19.54-12.94-31.46-.07-10.51-.18-26.17-.2-28.13-.85-12.13-11.58-21.35-24-20.58-11.67.72-20.87,10.43-20.94,22.11v.44s.08,32.76.08,32.76Zm44.87-34.6s0,.04,0,.05c0-.02,0-.03,0-.05Zm-.01-.31h0s0,0,0,0Z"></path><path class="cls-1" d="m176.54,438.91c-3.57,0-7.32-.18-10.91-.72-12.73-1.89-24.68-6.38-35.53-13.33-10.6-6.79-19.59-15.58-26.73-26.12-8.42-12.44-13.7-26.93-15.26-41.91l-.05-.44v-.44c0-64.53.01-75.52.02-77.58h0l-.04-33.66v-.23s.02-.07.02-.1c.13-9.87,3.93-19.26,10.72-26.46,6.89-7.31,16.21-11.68,26.24-12.3,10.5-.65,20.66,2.79,28.63,9.68,8.04,6.96,12.83,16.58,13.48,27.09.02.36.03.42.06,24.13v.04l-.34,92.89c.07,1.06.16,2.12.28,3.18,2.12,18.88,12.21,36.1,27.68,47.25,4.71,3.4,9.84,6.17,15.24,8.25l21.75,8.38-22.02,7.65c-.72.25-1.31.45-1.87.63l-.35.11-.36.08c-.56.13-13.74,3.15-21.55,3.63-2.72.17-5.84.32-9.11.32Zm-71.4-83.42c1.33,12.04,5.6,23.68,12.37,33.68,5.83,8.61,13.17,15.79,21.81,21.32,8.8,5.64,18.5,9.28,28.82,10.82,4.46.66,9.76.58,14.01.38-17.85-13.98-29.45-34.63-31.98-57.18-.16-1.43-.29-2.87-.38-4.3l-.02-.28v-.28s.34-93.17.34-93.17c-.01-8.61-.04-21.44-.04-23.28-.42-5.81-3.11-11.14-7.6-15.02-4.56-3.95-10.39-5.92-16.4-5.55-11.67.72-20.87,10.43-20.94,22.11v.45s.02,33.4.02,33.4h0c0,4.47-.01,70.7-.01,76.88Zm44.94-112.15s0,.07,0,.08c0-.03,0-.05,0-.08Z"></path></g><g><path class="cls-1" d="m603.39,475.25l-10.85-3.18c-6.65-1.95-12.95-5.31-18.23-9.71-1.7-1.42-3.32-2.98-4.67-4.49-1.53-1.71-3.42-3.84-3.42-7.24V130.44c.06-9.98,3.94-19.41,10.91-26.57,6.88-7.06,16.19-11.29,26.22-11.91,21.88-1.35,40.77,15.14,42.11,36.76q.02.38-.34,286.99h0c0,4.25-3.14,7.85-7.34,8.44h0c-9.4,1.33-18.05,6.05-24.34,13.3-6.34,7.31-9.88,16.71-9.96,26.48l-.09,11.3Zm-20.09-27.78c1.01,1.02,2.54,2.39,4.58,3.77,2.11-9.19,6.43-17.79,12.66-24.97,7.33-8.45,16.92-14.5,27.51-17.48.05-42.87.34-270.45.34-279.26-.88-12.1-11.59-21.3-23.99-20.53-11.95.74-21.02,9.98-21.11,21.51v316.96Z"></path><path class="cls-1" d="m643.78,521.6h-.02c-15.33,0-29.74-5.95-40.56-16.76-10.83-10.82-16.8-25.22-16.8-40.55,0-.12,0-.25,0-.37v-.11s.09-11.3.09-11.3l10.84,3.17c5.69,1.67,11.94,1.87,18.57.61,8.68-1.65,18.06-5.83,27.88-12.4h0c1.4-.94,3.06-1.44,4.75-1.44h75.95c10.41-.57,20.43,2.96,28.25,9.97,7.84,7.02,12.52,16.67,13.16,27.17h0c1.34,21.68-15.21,40.41-36.89,41.75l-.48.02-84.76.24Zm-39.11-47.48c1.75,7,5.36,13.41,10.59,18.64,7.6,7.59,17.71,11.76,28.48,11.77l84.45-.23c12.17-.87,21.43-11.43,20.68-23.64-.37-5.99-3.04-11.5-7.51-15.5-4.46-4-10.17-5.99-16.08-5.63l-.26.02h-73.92c-10.97,7.03-21.72,11.58-31.98,13.54-4.93.94-9.75,1.29-14.43,1.05Z"></path></g><path class="cls-1" d="m433.12,426.94c-15.11,0-29.78-2.96-43.59-8.8-13.34-5.64-25.31-13.71-35.59-24-10.28-10.28-18.36-22.26-24-35.59-5.84-13.81-8.8-28.48-8.8-43.59s2.96-29.78,8.8-43.59c5.64-13.34,13.71-25.31,24-35.59,10.28-10.28,22.26-18.36,35.59-24,13.81-5.84,28.48-8.8,43.59-8.8s29.78,2.96,43.59,8.8c13.34,5.64,25.31,13.71,35.59,24,10.28,10.28,18.36,22.26,24,35.59,5.84,13.81,8.8,28.48,8.8,43.59s-2.96,29.78-8.8,43.59c-5.64,13.34-13.71,25.31-24,35.59-10.28,10.28-22.26,18.36-35.59,24-13.81,5.84-28.48,8.8-43.59,8.8Zm0-206.9c-25.35,0-49.19,9.87-67.11,27.8-17.93,17.93-27.8,41.76-27.8,67.11s9.87,49.19,27.8,67.11c17.93,17.93,41.76,27.8,67.11,27.8s49.19-9.87,67.11-27.8c17.93-17.93,27.8-41.76,27.8-67.11s-9.87-49.19-27.8-67.11c-17.93-17.93-41.76-27.8-67.11-27.8Zm0,147.21c-28.84,0-52.3-23.46-52.3-52.3s23.46-52.3,52.3-52.3,52.3,23.46,52.3,52.3-23.46,52.3-52.3,52.3Zm0-87.53c-19.43,0-35.23,15.8-35.23,35.23s15.8,35.23,35.23,35.23,35.23-15.8,35.23-35.23-15.8-35.23-35.23-35.23Z"></path><path class="cls-1" d="m780.47,426.94c-15.11,0-29.78-2.96-43.59-8.8-13.34-5.64-25.31-13.71-35.59-24-10.28-10.28-18.36-22.26-24-35.59-5.84-13.81-8.8-28.48-8.8-43.59s2.96-29.78,8.8-43.59c5.64-13.34,13.71-25.31,24-35.59,10.28-10.28,22.26-18.36,35.59-24,13.81-5.84,28.48-8.8,43.59-8.8s29.78,2.96,43.59,8.8c13.34,5.64,25.31,13.71,35.59,24,10.28,10.28,18.36,22.26,24,35.59,5.84,13.81,8.8,28.48,8.8,43.59s-2.96,29.78-8.8,43.59c-5.64,13.34-13.71,25.31-24,35.59-10.28,10.28-22.26,18.36-35.59,24-13.81,5.84-28.48,8.8-43.59,8.8Zm0-206.9c-25.35,0-49.19,9.87-67.11,27.8-17.93,17.93-27.8,41.76-27.8,67.11s9.87,49.19,27.8,67.11c17.93,17.93,41.76,27.8,67.11,27.8s49.19-9.87,67.11-27.8c17.93-17.93,27.8-41.76,27.8-67.11s-9.87-49.19-27.8-67.11c-17.93-17.93-41.76-27.8-67.11-27.8Zm0,147.21c-28.84,0-52.3-23.46-52.3-52.3s23.46-52.3,52.3-52.3,52.3,23.46,52.3,52.3-23.46,52.3-52.3,52.3Zm0-87.53c-19.43,0-35.23,15.8-35.23,35.23s15.8,35.23,35.23,35.23,35.23-15.8,35.23-35.23-15.8-35.23-35.23-35.23Z"></path><path class="cls-1" d="m301.53,242.45c-.65-10.51-5.44-20.13-13.48-27.09-4.98-4.31-10.83-7.27-17.08-8.72-3.84-.93-7.85-1.29-11.9-1.04-10.03.62-19.35,4.99-26.24,12.3-6.79,7.21-10.59,16.6-10.72,26.46,0,.03,0,.07,0,.1v.23s.02,33.66.02,33.66h0c-.01,1.8-.01,10.42-.02,55.57h.06c-.05,32.4-.1,63.79-.12,75.01-5.5,3.79-11.49,6.82-17.86,9.03l-22.02,7.65,21.75,8.38c1.43.55,2.86,1.06,4.24,1.51,4.28,1.39,8.72,2.44,13.22,3.14,2.9.45,5.85.74,8.78.88,1.38.07,2.77.1,4.16.1,1.76,0,3.51-.05,5.24-.16,11.78-.73,23.04-3.81,33.46-9.17,10.06-5.17,18.86-12.2,26.17-20.9l2-2.38v-101.03q.36-63.09.34-63.54Zm-36.31,172.66c-8.31,4.27-17.29,6.73-26.7,7.31-2,.12-4.05.16-6.09.1,1.15-.8,2.27-1.64,3.39-2.49l3.31-2.56.14-88.71c.03-21.13.07-42.27.09-58.12l.03-19.15v-7.16s0-.06,0-.09c.08-11.53,9.15-20.78,21.09-21.52,2.21-.14,4.4.05,6.51.53,3.48.85,6.74,2.52,9.53,4.93,4.49,3.88,7.18,9.21,7.6,15.02,0,1.84.03,14.67.04,23.28l-.24,67.45h.2v66.77c-5.42,5.91-11.76,10.75-18.9,14.41Z"></path><g><path class="cls-1" d="m967.25,311.75c-1.73-4.17-5.18-6.55-10.24-6.55-7.2,0-11.25,5.18-11.25,11.67s4.11,11.67,11.25,11.67c5.12,0,8.63-2.44,10.3-6.49l3.99,1.19c-2.32,5.6-7.08,9.11-14.29,9.11-9.76,0-15.48-6.97-15.48-15.48s5.77-15.48,15.48-15.48c7.08,0,12.03,3.63,14.17,9.11l-3.93,1.25Z"></path><path class="cls-1" d="m1009.52,316.87c0,8.39-5.95,15.48-15.78,15.48s-15.78-6.97-15.78-15.48,5.95-15.48,15.78-15.48,15.78,7.02,15.78,15.48Zm-27.32,0c0,6.49,4.29,11.67,11.55,11.67s11.55-5.12,11.55-11.67-4.29-11.67-11.55-11.67-11.55,5.12-11.55,11.67Z"></path><path class="cls-1" d="m1023.04,287.1v44.65h-4.23v-44.65h4.23Z"></path><path class="cls-1" d="m1039.95,290.14c0,2.02-1.49,3.51-3.51,3.51s-3.51-1.49-3.51-3.51,1.55-3.51,3.51-3.51,3.51,1.43,3.51,3.51Zm-1.37,11.85v29.76h-4.23v-29.76h4.23Z"></path><path class="cls-1" d="m1051.8,301.98l11.43,25.06,11.43-25.06h4.88l-14.53,29.82h-3.57l-14.53-29.82h4.88Z"></path><path class="cls-1" d="m1093.47,290.14c0,2.02-1.49,3.51-3.51,3.51s-3.51-1.49-3.51-3.51,1.55-3.51,3.51-3.51,3.51,1.43,3.51,3.51Zm-1.37,11.85v29.76h-4.23v-29.76h4.23Z"></path><path class="cls-1" d="m1107.4,301.98v6.25c2.26-4.23,6.25-6.85,11.79-6.85,9.17,0,13.69,5.6,13.69,15v15.36h-4.23v-15.18c0-7.32-3.1-11.37-9.88-11.37s-11.13,4.88-11.13,12.2v14.35h-4.23v-29.76h3.99Z"></path><path class="cls-1" d="m1171.99,305.08h-8.04c2.2,1.67,3.69,4.35,3.69,7.44,0,6.07-4.88,10.77-12.5,10.77-1.67,0-3.21-.18-4.58-.6-1.07.65-1.67,1.79-1.67,3.1,0,2.08,1.79,3.51,4.46,3.51h6.61c6.85,0,10.83,3.27,10.83,8.75,0,6.19-5.83,10.83-16.13,10.83s-14.35-4.17-14.35-10.06c0-3.87,2.32-7.08,6.43-8.21-1.25-1.13-1.85-2.74-1.85-4.76,0-1.9.95-3.63,2.32-4.58-2.98-1.96-4.64-5.18-4.64-8.93,0-6.19,4.7-10.95,12.8-10.95h16.61v3.69Zm-27.5,33.69c0,3.63,2.92,6.31,10.3,6.31,8.04,0,11.79-2.98,11.79-6.97,0-2.98-2.2-5-6.61-5h-8.63c-4.58,0-6.85,2.56-6.85,5.66Zm19.11-26.43c0-3.99-2.92-7.2-8.45-7.2-5.24,0-8.51,2.92-8.51,7.2s3.21,7.2,8.51,7.2,8.45-2.92,8.45-7.2Z"></path></g><path class="cls-1" d="m1131.9,348.02v5.43h-190.37v-5.43h190.37Z"></path></svg>